<?xml version="1.0" standalone="no"?>
<!DOCTYPE svg PUBLIC "-//W3C//DTD SVG 20010904//EN"
 "http://www.w3.org/TR/2001/REC-SVG-20010904/DTD/svg10.dtd">
<svg version="1.0" xmlns="http://www.w3.org/2000/svg"
 width="800.000000pt" height="800.000000pt" viewBox="0 0 800.000000 800.000000"
 preserveAspectRatio="xMidYMid meet">
<metadata>
Created by potrace 1.14, written by Peter Selinger 2001-2017
</metadata>
<g transform="translate(0.000000,800.000000) scale(0.100000,-0.100000)"
fill="#000000" stroke="none">
<path d="M2340 6675 c-894 -410 -1648 -756 -1675 -770 -84 -41 -85 -45 -85
-335 l0 -252 39 -39 39 -39 96 0 96 0 0 -227 c0 -208 2 -231 20 -260 29 -49
66 -63 165 -63 l85 0 0 -1374 0 -1373 -90 -5 c-99 -6 -129 -19 -160 -71 -18
-29 -20 -52 -20 -254 l0 -223 -80 0 c-91 0 -137 -15 -168 -55 -22 -27 -22 -35
-22 -349 0 -360 1 -365 73 -399 32 -16 274 -17 3349 -17 3134 0 3315 1 3347
18 19 9 44 30 55 45 20 27 21 43 24 335 2 277 1 310 -15 341 -32 61 -62 76
-169 79 l-94 4 0 225 c0 207 -2 228 -20 258 -27 44 -61 57 -162 63 l-88 4 0
1374 0 1374 95 0 c95 0 96 0 133 34 l37 34 5 239 5 238 95 5 c72 4 102 10 124
25 51 34 56 62 56 310 0 243 -6 279 -52 309 -12 8 -769 357 -1682 775 -1235
567 -1668 761 -1695 761 -26 0 -465 -197 -1661 -745z m3247 -256 l1573 -722 0
-98 0 -99 -3160 0 -3160 0 0 98 0 98 1573 721 c864 397 1578 722 1586 722 8 1
723 -324 1588 -720z m1303 -1324 l0 -145 -2887 2 -2888 3 -3 129 c-1 72 0 136
2 143 4 11 529 13 2891 13 l2885 0 0 -145z m-5220 -545 l0 -140 -140 0 -140 0
0 140 0 140 140 0 140 0 0 -140z m550 -1235 l0 -1375 -140 0 -140 0 0 1375 0
1375 140 0 140 0 0 -1375z m550 1235 l0 -140 -140 0 -140 0 0 140 0 140 140 0
140 0 0 -140z m2200 -28 l0 -169 48 -34 c26 -18 82 -67 124 -107 l77 -74 151
1 150 2 0 -222 0 -222 40 -106 c143 -386 147 -783 10 -1168 -16 -45 -43 -110
-60 -143 -29 -57 -29 -60 -10 -60 19 0 20 -6 20 -140 l0 -140 -112 -1 -113 0
-59 -69 c-33 -38 -92 -98 -132 -132 l-72 -63 929 -3 929 -2 0 -140 0 -140
-1211 0 c-1165 0 -1214 -1 -1287 -19 -109 -28 -287 -51 -392 -51 -105 0 -283
23 -392 51 -73 18 -122 19 -1287 19 l-1212 0 3 137 3 138 927 5 926 5 -72 63
c-40 34 -99 94 -132 132 l-59 69 -107 0 -108 1 0 140 c0 118 2 140 15 140 12
0 9 13 -15 60 -161 320 -204 751 -110 1122 24 93 71 232 95 277 12 24 15 71
15 246 l0 216 146 -2 145 -1 72 69 c40 38 98 89 130 112 l57 43 0 164 0 164
965 0 965 0 0 -168z m550 28 l0 -140 -145 0 -145 0 0 140 0 140 145 0 145 0 0
-140z m548 -1237 l2 -1373 -145 0 -145 0 0 1375 0 1376 143 -3 142 -3 3 -1372z
m542 1237 l0 -140 -140 0 -140 0 0 140 0 140 140 0 140 0 0 -140z m-4940
-1235 l0 -825 -140 0 -140 0 0 825 0 825 140 0 140 0 0 -825z m4940 0 l0 -825
-140 0 -140 0 0 825 0 825 140 0 140 0 0 -825z m-4940 -1235 l0 -140 -140 0
-140 0 0 140 0 140 140 0 140 0 0 -140z m4940 0 l0 -140 -140 0 -140 0 0 140
0 140 140 0 140 0 0 -140z m550 -1100 l0 -140 -3160 0 -3160 0 0 140 0 140
3160 0 3160 0 0 -140z"/>
<path d="M3785 4295 c-163 -31 -314 -85 -436 -156 -351 -204 -590 -549 -655
-947 -19 -114 -14 -340 11 -462 105 -523 510 -930 1038 -1041 133 -28 381 -31
502 -5 207 44 397 128 545 239 439 332 629 865 496 1391 -123 485 -502 853
-996 967 -116 27 -392 35 -505 14z m410 -256 c199 -33 408 -142 560 -293 411
-408 422 -1073 26 -1490 -509 -534 -1389 -411 -1724 242 -91 176 -122 326
-114 544 4 116 10 160 31 232 87 292 267 515 528 656 128 69 253 105 428 124
48 5 192 -3 265 -15z"/>
<path d="M3880 3252 l0 -397 344 -206 344 -207 47 76 c44 73 46 78 28 90 -10
8 -143 88 -295 178 l-278 165 0 349 0 350 -95 0 -95 0 0 -398z"/>
</g>
</svg>
